<svg xmlns="http://www.w3.org/2000/svg" version="1.1" xmlns:xlink="http://www.w3.org/1999/xlink" xmlns:svgjs="http://svgjs.dev/svgjs" width="1500" height="1500" viewBox="0 0 1500 1500"><rect width="1500" height="1500" fill="#000000"></rect><g transform="matrix(0.6666666666666666,0,0,0.6666666666666666,249.39393939393938,666.6628385036071)"><svg viewBox="0 0 396 66" data-background-color="#ffffff" preserveAspectRatio="xMidYMid meet" height="250" width="1500" xmlns="http://www.w3.org/2000/svg" xmlns:xlink="http://www.w3.org/1999/xlink"><g id="tight-bounds" transform="matrix(1,0,0,1,0.2400000000000091,0.0015159525716228472)"><svg viewBox="0 0 395.52 65.99696809485675" height="65.99696809485675" width="395.52"><g><svg viewBox="0 0 500.01966469092815 83.43391448576092" height="65.99696809485675" width="395.52"><g transform="matrix(1,0,0,1,104.49966469092814,11.531025808089971)"><svg viewBox="0 0 395.52 60.37186286958098" height="60.37186286958098" width="395.52"><g id="textblocktransform"><svg viewBox="0 0 395.52 60.37186286958098" height="60.37186286958098" width="395.52" id="textblock"><g><svg viewBox="0 0 395.52 60.37186286958098" height="60.37186286958098" width="395.52"><g transform="matrix(1,0,0,1,0,0)"><svg width="395.52" viewBox="2.13 -33.48 275.62 42.08" height="60.37186286958098" data-palette-color="#000000"><path d="M12.68 0.58L12.68 0.58Q10.38 0.58 8.46 0.2 6.55-0.18 5.05-0.73 3.55-1.28 2.55-1.83L2.55-1.83 2.13-5.95Q4.05-4.8 6.66-3.94 9.28-3.08 12.35-3.08L12.35-3.08Q16.05-3.08 17.82-4.39 19.6-5.7 19.6-8.33L19.6-8.33 19.6-8.72Q19.6-10.45 18.9-11.55 18.2-12.65 16.54-13.4 14.88-14.15 12.03-14.8L12.03-14.8Q8.43-15.65 6.26-16.81 4.1-17.98 3.14-19.73 2.18-21.48 2.18-24.08L2.18-24.08 2.18-24.3Q2.18-28.23 4.75-30.36 7.33-32.5 12.55-32.5L12.55-32.5Q15.98-32.5 18.39-31.8 20.8-31.1 22.33-30.25L22.33-30.25 22.7-26.45Q20.93-27.5 18.56-28.24 16.2-28.98 13.15-28.98L13.15-28.98Q10.73-28.98 9.22-28.4 7.73-27.83 7.05-26.75 6.38-25.68 6.38-24.15L6.38-24.15 6.38-24.05Q6.38-22.5 7.04-21.4 7.7-20.3 9.36-19.5 11.03-18.7 14.1-17.95L14.1-17.95Q17.63-17.13 19.75-16.05 21.88-14.98 22.84-13.25 23.8-11.53 23.8-8.75L23.8-8.75 23.8-8.22Q23.8-3.9 21.01-1.66 18.23 0.58 12.68 0.58ZM39.05 0.63L39.05 0.63Q33.8 0.63 31.09-2.21 28.37-5.05 28.37-10.38L28.37-10.38 28.37-14.1Q28.37-19.4 31.1-22.23 33.82-25.05 39.05-25.05L39.05-25.05Q44.3-25.05 47.01-22.23 49.72-19.4 49.72-14.1L49.72-14.1 49.72-10.38Q49.72-5.05 47.01-2.21 44.3 0.63 39.05 0.63ZM39.05-2.68L39.05-2.68Q42.3-2.68 43.98-4.6 45.67-6.53 45.67-10.15L45.67-10.15 45.67-14.33Q45.67-17.93 43.98-19.84 42.3-21.75 39.05-21.75L39.05-21.75Q35.82-21.75 34.12-19.84 32.42-17.93 32.42-14.33L32.42-14.33 32.42-10.15Q32.42-6.53 34.12-4.6 35.82-2.68 39.05-2.68ZM64.75 0.55L64.75 0.55Q59.5 0.55 56.93-2.29 54.37-5.13 54.37-10.33L54.37-10.33 54.37-14.13Q54.37-19.35 56.95-22.16 59.52-24.98 64.75-24.98L64.75-24.98Q66.3-24.98 67.57-24.69 68.84-24.4 69.86-23.94 70.87-23.48 71.57-22.98L71.57-22.98 71.92-19.45Q70.75-20.35 69.13-20.98 67.52-21.6 65.34-21.6L65.34-21.6Q61.84-21.6 60.13-19.66 58.42-17.73 58.42-14.03L58.42-14.03 58.42-10.43Q58.42-6.8 60.13-4.85 61.84-2.9 65.34-2.9L65.34-2.9Q67.59-2.9 69.23-3.53 70.87-4.15 72.15-5.05L72.15-5.05 71.77-1.48Q70.67-0.73 68.9-0.09 67.12 0.55 64.75 0.55ZM81.17 0L77.12 0 77.12-24.4 81.17-24.4 81.17 0ZM79.14-28.4L79.14-28.4Q77.89-28.4 77.28-29.06 76.67-29.73 76.67-30.88L76.67-30.88 76.67-31Q76.67-32.18 77.28-32.83 77.89-33.48 79.14-33.48L79.14-33.48Q80.39-33.48 81.02-32.83 81.64-32.18 81.64-31L81.64-31 81.64-30.88Q81.64-29.7 81.02-29.05 80.39-28.4 79.14-28.4ZM106.37 0L102.34 0 102.52-5.93 102.37-6.55 102.37-14.33 102.39-15.75Q102.39-18.73 100.88-20.15 99.37-21.58 96.09-21.58L96.09-21.58Q93.47-21.58 91.28-20.83 89.09-20.08 87.39-19.07L87.39-19.07 87.77-22.53Q88.72-23.1 90.03-23.66 91.34-24.23 93.03-24.6 94.72-24.98 96.74-24.98L96.74-24.98Q99.37-24.98 101.2-24.34 103.04-23.7 104.18-22.5 105.32-21.3 105.84-19.6 106.37-17.9 106.37-15.8L106.37-15.8 106.37 0ZM93.94 0.53L93.94 0.53Q90.32 0.53 88.38-1.24 86.44-3 86.44-6.28L86.44-6.28 86.44-7Q86.44-10.38 88.53-12.04 90.62-13.7 95.17-14.35L95.17-14.35 102.89-15.45 103.12-12.5 95.67-11.43Q92.87-11.03 91.67-10.06 90.47-9.1 90.47-7.23L90.47-7.23 90.47-6.83Q90.47-4.9 91.65-3.88 92.84-2.85 95.22-2.85L95.22-2.85Q97.32-2.85 98.82-3.58 100.32-4.3 101.24-5.53 102.17-6.75 102.49-8.25L102.49-8.25 103.12-5.5 102.34-5.5Q101.99-3.9 101.03-2.53 100.07-1.15 98.34-0.31 96.62 0.53 93.94 0.53ZM116.71 0L112.69 0 112.69-33.13 116.71-33.13 116.71 0ZM144.38 0.58L144.38 0.58Q142.08 0.58 140.17 0.2 138.26-0.18 136.76-0.73 135.26-1.28 134.26-1.83L134.26-1.83 133.83-5.95Q135.76-4.8 138.37-3.94 140.98-3.08 144.06-3.08L144.06-3.08Q147.76-3.08 149.53-4.39 151.31-5.7 151.31-8.33L151.31-8.33 151.31-8.72Q151.31-10.45 150.61-11.55 149.91-12.65 148.25-13.4 146.58-14.15 143.73-14.8L143.73-14.8Q140.13-15.65 137.97-16.81 135.81-17.98 134.84-19.73 133.88-21.48 133.88-24.08L133.88-24.08 133.88-24.3Q133.88-28.23 136.46-30.36 139.03-32.5 144.26-32.5L144.26-32.5Q147.68-32.5 150.09-31.8 152.51-31.1 154.03-30.25L154.03-30.25 154.41-26.45Q152.63-27.5 150.27-28.24 147.91-28.98 144.86-28.98L144.86-28.98Q142.43-28.98 140.93-28.4 139.43-27.83 138.76-26.75 138.08-25.68 138.08-24.15L138.08-24.15 138.08-24.05Q138.08-22.5 138.75-21.4 139.41-20.3 141.07-19.5 142.73-18.7 145.81-17.95L145.81-17.95Q149.33-17.13 151.46-16.05 153.58-14.98 154.55-13.25 155.51-11.53 155.51-8.75L155.51-8.75 155.51-8.22Q155.51-3.9 152.72-1.66 149.93 0.58 144.38 0.58ZM173.08 0.53L173.08 0.53Q170.83 0.53 169.18-0.23 167.53-0.98 166.51-2.38 165.48-3.78 165.13-5.63L165.13-5.63 163.81-5.63 164.98-9.43Q165.08-7.23 165.97-5.76 166.86-4.3 168.38-3.58 169.91-2.85 171.83-2.85L171.83-2.85Q174.91-2.85 176.54-4.65 178.18-6.45 178.18-9.93L178.18-9.93 178.18-14.6Q178.18-18.05 176.56-19.85 174.93-21.65 171.83-21.65L171.83-21.65Q169.98-21.65 168.56-20.93 167.13-20.2 166.19-18.95 165.26-17.7 164.91-16.1L164.91-16.1 163.91-18.93 165.08-18.93Q165.48-20.6 166.44-21.96 167.41-23.33 169.09-24.14 170.78-24.95 173.26-24.95L173.26-24.95Q177.66-24.95 179.96-22.21 182.26-19.48 182.26-14.28L182.26-14.28 182.26-10.23Q182.26-4.98 179.94-2.23 177.63 0.53 173.08 0.53ZM165.08 8.6L161.06 8.6 161.06-24.4 165.11-24.4 164.93-18.53 164.98-17.28 164.98-7 164.96-6.18 165.08 0.68 165.08 8.6ZM208.28 0L204.23 0 204.23-15.18Q204.23-17.15 203.69-18.57 203.15-20 201.94-20.79 200.73-21.58 198.63-21.58L198.63-21.58Q196.7-21.58 195.3-20.85 193.9-20.13 193.04-18.89 192.18-17.65 191.83-16.07L191.83-16.07 190.93-18.95 191.98-18.95Q192.35-20.6 193.35-21.96 194.35-23.33 196.04-24.14 197.73-24.95 200.15-24.95L200.15-24.95Q203.05-24.95 204.84-23.85 206.63-22.75 207.45-20.69 208.28-18.63 208.28-15.63L208.28-15.63 208.28 0ZM191.95 0L187.9 0 187.9-33.13 191.93-33.13 191.93-25.18 191.8-18.18 191.95-17.85 191.95 0ZM224.8 0.55L224.8 0.55Q219.23 0.55 216.4-2.18 213.58-4.9 213.58-9.98L213.58-9.98 213.58-14.33Q213.58-19.48 216.2-22.26 218.83-25.05 223.88-25.05L223.88-25.05Q227.28-25.05 229.55-23.79 231.83-22.53 232.98-20.2 234.13-17.88 234.13-14.65L234.13-14.65 234.13-13.75Q234.13-12.95 234.06-12.15 234-11.35 233.9-10.58L233.9-10.58 230.18-10.58Q230.23-11.78 230.24-12.85 230.25-13.93 230.25-14.83L230.25-14.83Q230.25-17.05 229.54-18.59 228.83-20.13 227.41-20.94 226-21.75 223.88-21.75L223.88-21.75Q220.73-21.75 219.15-19.93 217.58-18.1 217.58-14.7L217.58-14.7 217.58-12.38 217.6-11.88 217.6-9.55Q217.6-8.03 218.05-6.8 218.5-5.58 219.46-4.69 220.43-3.8 221.91-3.34 223.4-2.88 225.45-2.88L225.45-2.88Q227.83-2.88 229.88-3.5 231.93-4.13 233.73-5.2L233.73-5.2 233.35-1.7Q231.73-0.68 229.58-0.06 227.43 0.55 224.8 0.55ZM233.05-10.58L215.7-10.58 215.7-13.63 233.05-13.63 233.05-10.58ZM243.37-14.93L243.37-14.93 242.45-18.05 243.45-18.1Q244.25-21.2 246.2-22.99 248.15-24.78 251.37-24.78L251.37-24.78Q252.17-24.78 252.81-24.65 253.45-24.53 253.95-24.35L253.95-24.35 254.2-20.43Q253.57-20.63 252.81-20.75 252.05-20.88 251.12-20.88L251.12-20.88Q248.37-20.88 246.34-19.35 244.3-17.82 243.37-14.93ZM243.57 0L239.52 0 239.52-24.4 243.47-24.4 243.27-17.2 243.57-16.9 243.57 0ZM268.42 0.55L268.42 0.55Q262.85 0.55 260.02-2.18 257.2-4.9 257.2-9.98L257.2-9.98 257.2-14.33Q257.2-19.48 259.82-22.26 262.45-25.05 267.5-25.05L267.5-25.05Q270.9-25.05 273.17-23.79 275.45-22.53 276.6-20.2 277.75-17.88 277.75-14.65L277.75-14.65 277.75-13.75Q277.75-12.95 277.68-12.15 277.62-11.35 277.52-10.58L277.52-10.58 273.8-10.58Q273.85-11.78 273.86-12.85 273.87-13.93 273.87-14.83L273.87-14.83Q273.87-17.05 273.16-18.59 272.45-20.13 271.03-20.94 269.62-21.75 267.5-21.75L267.5-21.75Q264.35-21.75 262.77-19.93 261.2-18.1 261.2-14.7L261.2-14.7 261.2-12.38 261.22-11.88 261.22-9.55Q261.22-8.03 261.67-6.8 262.12-5.58 263.08-4.69 264.05-3.8 265.53-3.34 267.02-2.88 269.07-2.88L269.07-2.88Q271.45-2.88 273.5-3.5 275.55-4.13 277.35-5.2L277.35-5.2 276.97-1.7Q275.35-0.68 273.2-0.06 271.05 0.55 268.42 0.55ZM276.67-10.58L259.32-10.58 259.32-13.63 276.67-13.63 276.67-10.58Z" opacity="1" transform="matrix(1,0,0,1,0,0)" fill="#ffffff" class="wordmark-text-0" data-fill-palette-color="primary" id="text-0"></path></svg></g></svg></g></svg></g></svg></g><g><svg viewBox="0 0 90.24731679212894 83.43391448576092" height="83.43391448576092" width="90.24731679212894"><g><svg xmlns:dc="http://purl.org/dc/elements/1.1/" xmlns:cc="http://creativecommons.org/ns#" xmlns:rdf="http://www.w3.org/1999/02/22-rdf-syntax-ns#" xmlns:svg="http://www.w3.org/2000/svg" xmlns="http://www.w3.org/2000/svg" version="1.1" viewBox="15.000000972968124 25.192100136952696 269.99999481569915 249.615803320744" xml:space="preserve" style="" x="0" y="0" fill-rule="evenodd" height="83.43391448576092" width="90.24731679212894" class="icon-icon-0" data-fill-palette-color="accent" id="icon-0"><path d="M148.528 25.212c-9.466 0.246-19.104 2.758-27.867 7.817C100.825 44.481 90.241 66.036 91.506 87.568 65.658 105.453 50.305 133.713 47.728 163.445c-1.146 0.565-2.283 1.101-3.403 1.747-27.952 16.138-37.653 52.35-21.521 80.291 16.138 27.952 52.35 37.653 80.291 21.521 1.101-0.636 2.175-1.327 3.219-2.023 27.083 12.662 59.289 13.491 87.74 0 17.991 11.767 41.843 13.442 61.621 2.023 27.952-16.138 37.653-52.35 21.521-80.291-5.99-10.376-14.772-18.268-24.832-23.268-1.191-14.657-5.52-29.23-13.336-42.767C231.219 107.152 220.683 96.104 208.586 87.752 209.337 76.535 206.952 65.035 200.952 54.642 189.879 35.464 169.414 24.669 148.528 25.212z m0.736 29.43c10.347-0.269 20.473 4.934 26.12 14.716 8.188 14.182 3.503 31.826-10.669 40.007-14.154 8.172-31.816 3.427-40.007-10.76-8.188-14.182-3.503-31.826 10.669-40.008 4.4-2.54 9.157-3.832 13.887-3.955z m-47.733 62.357c17.078 25.077 51.201 33.349 77.9 17.934 7.904-4.564 14.228-10.805 19.038-17.934 5.799 5.134 10.881 11.275 14.991 18.394 4.077 7.061 6.808 14.534 8.37 22.073-8.517 0.646-17.06 3.093-24.925 7.634-26.69 15.41-36.647 49.093-23.452 76.428-15.53 5.286-32.003 5.119-46.906 0.092 8.114-16.946 8.1-37.533-1.931-54.907-10.038-17.387-27.811-27.746-46.538-29.155 3.096-15.392 11.144-29.767 23.453-40.559z m123.977 69.714c10.347-0.269 20.473 4.934 26.12 14.716 8.188 14.182 3.503 31.826-10.668 40.007-14.154 8.172-31.816 3.427-40.008-10.76-8.188-14.182-3.503-31.826 10.669-40.008 4.4-2.54 9.157-3.832 13.887-3.955z m-152.58 0.092c10.405-0.27 20.486 4.866 26.12 14.624 8.188 14.182 3.503 31.826-10.669 40.007-14.182 8.188-31.826 3.503-40.007-10.669-8.188-14.182-3.503-31.826 10.668-40.007 4.4-2.54 9.157-3.832 13.888-3.955z" fill="#ffffff" fill-opacity="1" fill-rule="nonzero" stroke="none" marker="none" visibility="visible" display="inline" overflow="visible" text-indent="0" text-transform="none" direction="ltr" block-progression="tb" baseline-shift="baseline" color="#000000" enable-background="accumulate" data-fill-palette-color="accent"></path></svg></g></svg></g></svg></g><defs></defs></svg><rect width="395.52" height="65.99696809485675" fill="none" stroke="none" visibility="hidden"></rect></g></svg></g></svg>